<?xml version="1.0" standalone="no"?>
<!DOCTYPE svg PUBLIC "-//W3C//DTD SVG 20010904//EN"
 "http://www.w3.org/TR/2001/REC-SVG-20010904/DTD/svg10.dtd">
<svg version="1.0" xmlns="http://www.w3.org/2000/svg"
 width="864.000000pt" height="864.000000pt" viewBox="0 0 864.000000 864.000000"
 preserveAspectRatio="xMidYMid meet">
<metadata>
Created by potrace 1.14, written by Peter Selinger 2001-2017
</metadata>
<g transform="translate(0.000000,864.000000) scale(0.100000,-0.100000)"
fill="#000000" stroke="none">
<path d="M0 4320 l0 -3840 2868 0 2869 0 0 476 c1 261 4 478 7 481 3 4 8 4 12
1 3 -3 5 -220 5 -482 l0 -476 1440 0 1439 0 0 3840 0 3840 -1439 0 -1440 0 0
-476 c0 -262 -2 -478 -5 -482 -3 -3 -9 -2 -13 1 -3 4 -7 220 -7 480 l-1 472
-2867 3 -2868 2 0 -3840z m5761 2065 c0 -260 -3 -391 -10 -398 -14 -14 -12
-55 -13 393 0 455 -1 417 13 403 7 -7 10 -140 10 -398z m0 -1276 c0 -388 0
-379 -13 -379 -10 0 -13 65 -11 297 2 375 1 349 13 337 7 -7 11 -99 11 -255z
m-1 -831 c3 -269 0 -362 -9 -371 -13 -13 -12 -34 -14 211 -2 156 1 202 11 202
7 0 12 -15 12 -42z m1 -998 c0 -111 -3 -205 -6 -208 -14 -14 -17 21 -18 201 0
174 5 228 20 214 2 -3 4 -96 4 -207z m0 -1001 c0 -211 0 -394 -1 -406 0 -13
-6 -23 -12 -23 -10 0 -13 85 -12 394 1 358 5 439 20 424 3 -3 5 -178 5 -389z"/>
</g>
</svg>
