<svg width="54" height="48" viewBox="0 0 54 48" fill="none" xmlns="http://www.w3.org/2000/svg">
<rect width="35.8575" height="48" fill="#FBB731"/>
<rect x="36" width="18" height="48" fill="white"/>
<path fill-rule="evenodd" clip-rule="evenodd" d="M34.5769 6H37.1381C46.3282 6.01062 53.7757 13.4877 53.7863 22.7143C53.7863 23.4244 53.2129 24 52.5056 24H19.2094C18.5021 24 17.9287 23.4244 17.9287 22.7143C17.9393 13.4877 25.3868 6.01062 34.5769 6ZM34.5768 8.57152C27.2963 8.58025 21.2185 14.1503 20.5476 21.4286H51.1674C50.4965 14.1503 44.4186 8.58025 37.1381 8.57152H34.5768Z" fill="#443737"/>
<path fill-rule="evenodd" clip-rule="evenodd" d="M47.3831 31.8074H52.5057C53.213 31.8074 53.7863 32.3778 53.7863 33.0815V35.6297C53.7821 39.1463 50.9177 41.996 47.3831 42.0001H24.3318C20.7972 41.996 17.9329 39.1463 17.9287 35.6297V33.0815C17.9287 32.3778 18.5021 31.8074 19.2094 31.8074H37.1381C37.4152 31.8074 37.6848 31.8967 37.9064 32.0622L42.2606 35.3111L46.6148 32.0622C46.8364 31.8968 47.106 31.8074 47.3831 31.8074ZM47.3832 39.4519C49.505 39.4519 51.2251 37.7406 51.2251 35.6296V34.3554H47.8096L43.029 37.9229C42.5737 38.2627 41.9476 38.2627 41.4923 37.9229L36.7117 34.3554H20.49V35.6296C20.49 37.7406 22.2101 39.4519 24.3319 39.4519H47.3832Z" fill="#443737"/>
<path d="M52.5056 26.6023H19.2094C18.5021 26.6023 17.9287 27.1849 17.9287 27.9035C17.9287 28.6221 18.5021 29.2047 19.2094 29.2047H52.5056C53.2129 29.2047 53.7863 28.6221 53.7863 27.9035C53.7863 27.1848 53.2129 26.6023 52.5056 26.6023Z" fill="#443737"/>
<path d="M29.3774 13.5903C28.6616 13.5903 28.0813 14.1729 28.0813 14.8915V16.1927C28.0813 16.9114 28.6616 17.4939 29.3774 17.4939C30.0932 17.4939 30.6734 16.9114 30.6734 16.1927V14.8915C30.6734 14.1729 30.0932 13.5903 29.3774 13.5903Z" fill="#443737"/>
<path d="M35.8576 13.5903C35.1418 13.5903 34.5615 14.1729 34.5615 14.8915V16.1927C34.5615 16.9114 35.1418 17.4939 35.8576 17.4939C36.5734 17.4939 37.1536 16.9113 37.1536 16.1927V14.8915C37.1536 14.1729 36.5734 13.5903 35.8576 13.5903Z" fill="#443737"/>
<path d="M42.3378 13.5903C41.622 13.5903 41.0417 14.1729 41.0417 14.8915V16.1927C41.0417 16.9114 41.622 17.4939 42.3378 17.4939C43.0536 17.4939 43.6339 16.9114 43.6339 16.1927V14.8915C43.6338 14.1729 43.0535 13.5903 42.3378 13.5903Z" fill="#443737"/>
</svg>
